<?xml version="1.0" encoding="utf-8"?>
<!-- Generator: Adobe Illustrator 15.1.0, SVG Export Plug-In . SVG Version: 6.00 Build 0)  -->
<!DOCTYPE svg PUBLIC "-//W3C//DTD SVG 1.1//EN" "http://www.w3.org/Graphics/SVG/1.1/DTD/svg11.dtd">
<svg version="1.1" id="Layer_1" xmlns="http://www.w3.org/2000/svg" xmlns:xlink="http://www.w3.org/1999/xlink" x="0px" y="0px"
	 width="64px" height="64px" viewBox="0 0 64 64" enable-background="new 0 0 64 64" xml:space="preserve">
<path fill-rule="evenodd" clip-rule="evenodd" fill="#676767" d="M19.104,19.504c0.278,0.28,0.558,0.6,0.839,0.961
	c1.331,1.726,1.996,3.792,1.996,6.2c0,2.366-0.633,4.382-1.898,6.05c-0.854,0.394-1.711,0.86-2.576,1.393
	c-0.492,0.328-1.006,0.683-1.539,1.061c-0.38,0.255-0.777,0.547-1.157,0.875C13.083,37.434,12,38.956,11,40.616V53h1V40.938
	c1-1.586,2.041-3.041,3.624-4.364c0.354-0.311,0.756-0.595,1.118-0.851c0.508-0.352,1.02-0.686,1.49-0.998
	c0.344-0.221,0.702-0.427,1.045-0.616c2.556-1.456,5.079-2.248,7.561-2.379c0.329-0.409,0.315-0.964-0.048-1.663
	c-0.139-0.271-0.331-0.558-0.578-0.863c-0.746-0.961-1.325-2.009-1.736-3.143c-0.525-1.42-0.788-2.991-0.788-4.709
	c0-3.063,0.84-5.696,2.525-7.898c0.363-0.453,0.749-0.86,1.161-1.221c3.22-1.643,6.265-1.643,9.132,0
	c0.354,0.361,0.713,0.768,1.084,1.221c1.684,2.202,2.525,4.835,2.525,7.898c0,1.752-0.27,3.349-0.812,4.794
	c-0.418,1.111-0.99,2.129-1.713,3.058c-0.24,0.296-0.422,0.576-0.555,0.838c-0.381,0.708-0.402,1.27-0.072,1.688
	c2.547,0.14,5.139,0.971,7.775,2.491c0.27,0.156,0.545,0.324,0.826,0.505c0.459,0.312,0.945,0.646,1.453,0.998
	c0.361,0.256,0.912,0.54,1.271,0.851C49.875,37.896,51,39.352,52,40.938V53h1V40.616c-1-1.66-2.168-3.183-3.838-4.572
	c-0.385-0.328-0.828-0.62-1.211-0.875c-0.537-0.378-1.077-0.732-1.569-1.061c-0.734-0.452-1.474-0.858-2.198-1.22
	c-0.039-0.041-0.085-0.085-0.118-0.136c-1.322-1.684-1.985-3.734-1.985-6.15s0.658-4.485,1.98-6.212
	c0.279-0.36,0.583-0.681,0.913-0.961c2.52-1.298,4.907-1.298,7.159,0c0.277,0.28,0.561,0.601,0.85,0.961
	c1.322,1.727,1.986,3.796,1.986,6.212s-0.664,4.466-1.986,6.15c-0.689,0.887-0.854,1.55-0.492,1.985
	c2.219,0.115,4.469,0.9,6.754,2.354c0.369,0.239,0.75,0.498,1.145,0.777c0.289,0.205,0.572,0.431,0.852,0.677
	c1.238,1.036,2.162,2.178,2.76,3.427V53H52l0,0H0V42.046c0.601-1.25,1.525-2.396,2.774-3.439c0.278-0.238,0.557-0.459,0.836-0.664
	c0.403-0.28,0.784-0.54,1.146-0.777c2.293-1.454,4.544-2.239,6.754-2.354c0.362-0.435,0.202-1.097-0.48-1.984
	c-1.331-1.685-1.996-3.739-1.996-6.162c0-2.408,0.666-4.474,1.996-6.2c0.279-0.361,0.581-0.681,0.9-0.961
	C14.453,18.207,16.842,18.207,19.104,19.504z"/>
</svg>
